<?xml version="1.0" encoding="UTF-8" standalone="no"?>
<svg
   xmlns:dc="http://purl.org/dc/elements/1.1/"
   xmlns:cc="http://creativecommons.org/ns#"
   xmlns:rdf="http://www.w3.org/1999/02/22-rdf-syntax-ns#"
   xmlns:svg="http://www.w3.org/2000/svg"
   xmlns="http://www.w3.org/2000/svg"
   xmlns:sodipodi="http://sodipodi.sourceforge.net/DTD/sodipodi-0.dtd"
   xmlns:inkscape="http://www.inkscape.org/namespaces/inkscape"
   version="1.1"
   id="Ebene_1"
   x="0px"
   y="0px"
   viewBox="0 0 832 230"
   xml:space="preserve"
   sodipodi:docname="logo.svg"
   width="832"
   height="230"
   inkscape:version="1.0.2 (e86c870879, 2021-01-15)"><metadata
   id="metadata141"><rdf:RDF><cc:Work
       rdf:about=""><dc:format>image/svg+xml</dc:format><dc:type
         rdf:resource="http://purl.org/dc/dcmitype/StillImage" /><dc:title></dc:title></cc:Work></rdf:RDF></metadata><defs
   id="defs139" /><sodipodi:namedview
   pagecolor="#ffffff"
   bordercolor="#666666"
   borderopacity="1"
   objecttolerance="10"
   gridtolerance="10"
   guidetolerance="10"
   inkscape:pageopacity="0"
   inkscape:pageshadow="2"
   inkscape:window-width="1994"
   inkscape:window-height="1153"
   id="namedview137"
   showgrid="false"
   inkscape:zoom="1.5997596"
   inkscape:cx="416"
   inkscape:cy="170.5"
   inkscape:window-x="0"
   inkscape:window-y="32"
   inkscape:window-maximized="0"
   inkscape:current-layer="Ebene_1" />
<style
   type="text/css"
   id="style104">
	.st0{fill:none;}
	.st1{enable-background:new    ;}
	.st2{fill:#DC3100;}
</style>
<rect
   x="746.8028"
   y="57.789021"
   class="st0"
   width="111.09593"
   height="218.29596"
   id="rect106"
   style="stroke-width:1.25674" />
<g
   class="st1"
   id="g110"
   transform="matrix(1.2567413,0,0,1.2567413,-90.940946,-98.298242)">
	<path
   d="m 702.6,122.6 c 20.5,0 31,12.2 31,33.7 v 4.2 H 713.7 V 155 c 0,-9.6 -3.8,-13.2 -10.5,-13.2 -6.7,0 -10.5,3.6 -10.5,13.2 0,27.6 41.1,32.7 41.1,71 0,21.4 -10.7,33.7 -31.4,33.7 -20.7,0 -31.4,-12.2 -31.4,-33.7 v -8.2 h 19.9 v 9.6 c 0,9.6 4.2,13 10.9,13 6.7,0 10.9,-3.4 10.9,-13 0,-27.6 -41.1,-32.7 -41.1,-71 0,-21.5 10.5,-33.8 31,-33.8 z"
   id="path108" />
</g>
<g
   id="g130"
   transform="matrix(1.2567413,0,0,1.2567413,-90.940946,-98.298242)">
	<path
   d="m 147.9,259.5 h -21.5 l -3.7,-24.6 H 96.6 l -3.7,24.6 H 73.4 L 95,124 h 31.2 z M 99.3,216.6 h 20.5 L 109.6,148 Z"
   id="path112" />
	<path
   d="m 219.6,209 v 18 c 0,21.7 -10.8,34.1 -31.8,34.1 -21,0 -31.8,-12.4 -31.8,-34.1 v -70.5 c 0,-21.7 10.8,-34.1 31.8,-34.1 21,0 31.8,12.4 31.8,34.1 v 13.2 h -20.1 v -14.5 c 0,-9.7 -4.3,-13.4 -11,-13.4 -6.7,0 -11,3.7 -11,13.4 v 73.2 c 0,9.7 4.3,13.2 11,13.2 6.7,0 11,-3.5 11,-13.2 V 209 Z"
   id="path114" />
	<path
   d="m 226.3,124 h 65.8 v 19.4 H 269.8 V 259.6 H 248.5 V 143.4 h -22.3 z"
   id="path116" />
	<path
   d="M 322.8,181.1 H 352 v 19.4 h -29.2 v 39.7 h 36.8 v 19.4 H 301.5 V 124 h 58.1 v 19.4 h -36.8 z"
   id="path118" />
	<g
   id="g122">
		<path
   class="st2"
   d="m 407.7,215.1 13,-88.7 c 0.2,-1.4 1.4,-2.5 2.9,-2.5 h 13.7 c 1.8,0 3.1,1.6 2.9,3.3 l -18,116.5 c -1.4,9 -9.2,15.7 -18.3,15.7 v 0 c -9.1,0 -16.9,-6.7 -18.3,-15.7 l -18,-116.5 c -0.3,-1.7 1.1,-3.3 2.9,-3.3 h 15.6 c 1.4,0 2.6,1 2.9,2.5 l 13,88.7 c 0.5,3.3 5.3,3.3 5.7,0 z"
   id="path120" />
	</g>
	<path
   d="m 471.9,181.1 h 29.2 v 19.4 h -29.2 v 39.7 h 36.8 v 19.4 H 450.6 V 124 h 58.1 v 19.4 h -36.8 z"
   id="path124" />
	<path
   d="m 540.8,161.4 v 98.2 H 521.6 V 124 h 26.7 l 21.9,81.1 V 124 h 19 v 135.6 h -21.9 z"
   id="path126" />
	<path
   d="m 598.3,124 h 65.8 v 19.4 H 641.8 V 259.6 H 620.5 V 143.4 h -22.3 z"
   id="path128" />
</g>
<g
   id="g134"
   transform="matrix(1.2567413,0,0,1.2567413,-90.940946,-98.298242)">
	<path
   class="st2"
   d="m 404.9,104.6 0.3,0.1 c 9,0 13.3,3.2 14.5,8.6 0.5,2.2 2.5,3.7 4.7,3.7 h 12.5 c 2.8,0 5.1,-2.4 4.9,-5.2 -1.8,-20.9 -15,-31.2 -37.7,-31.2 l 1.9,-0.1 c -22.7,0 -35.9,10.2 -37.8,31.1 -0.3,2.8 2,5.2 4.9,5.2 h 12.5 c 2.2,0 4.2,-1.5 4.7,-3.7 1.3,-5.4 5.5,-8.5 14.6,-8.5 z"
   id="path132" />
</g>
</svg>
