<svg xmlns="http://www.w3.org/2000/svg" version="1.1" height="341" width="182" viewBox="0 0 182 341">
	<style type="text/css" id="style65">
		.st0{fill:#DC3100;}
	</style>
	<g id="g69">
		<path class="st0" d="m 94,215.6 13,-88.7 c 0.2,-1.4 1.4,-2.5 2.9,-2.5 h 13.7 c 1.8,0 3.1,1.6 2.9,3.3 l -18,116.5 c -1.4,9 -9.2,15.7 -18.3,15.7 v 0 c -9.1,0 -16.9,-6.7 -18.3,-15.7 l -18,-116.5 c -0.3,-1.7 1.1,-3.3 2.9,-3.3 h 15.6 c 1.4,0 2.6,1 2.9,2.5 l 13,88.7 c 0.5,3.3 5.3,3.3 5.7,0 z" id="path67" />
	</g>
	<g id="g73">
		<path class="st0" d="m 91.2,105.1 0.3,0.1 c 9,0 13.3,3.2 14.5,8.6 0.5,2.2 2.5,3.7 4.7,3.7 h 12.5 c 2.8,0 5.1,-2.4 4.9,-5.2 -1.8,-20.9 -15,-31.2 -37.7,-31.2 L 92.3,81 c -22.7,0 -35.9,10.2 -37.8,31.1 -0.3,2.8 2,5.2 4.9,5.2 h 12.5 c 2.2,0 4.2,-1.5 4.7,-3.7 1.3,-5.4 5.5,-8.5 14.6,-8.5 z" id="path71" />
	</g>
</svg>
